<svg xmlns="http://www.w3.org/2000/svg" width="20" height="20" viewBox="0 0 20 20" fill="none">
  <path fill-rule="evenodd" clip-rule="evenodd" d="M11.6666 6.66671C11.6666 7.58337 10.9166 8.33337 9.99992 8.33337C9.08325 8.33337 8.33325 7.58337 8.33325 6.66671C8.33325 5.75004 9.08325 5.00004 9.99992 5.00004C10.9166 5.00004 11.6666 5.75004 11.6666 6.66671ZM9.99992 12.5C12.2499 12.5 14.8333 13.575 14.9999 14.1667V15H4.99992V14.175C5.16659 13.575 7.74992 12.5 9.99992 12.5ZM6.66658 6.66671C6.66658 8.50837 8.15824 10 9.99991 10C11.8416 10 13.3332 8.50837 13.3332 6.66671C13.3332 4.82504 11.8416 3.33337 9.99991 3.33337C8.15824 3.33337 6.66658 4.82504 6.66658 6.66671ZM9.99992 10.8334C7.77492 10.8334 3.33325 11.95 3.33325 14.1667V16.6667H16.6666V14.1667C16.6666 11.95 12.2249 10.8334 9.99992 10.8334Z" fill="#757B8C"/>
</svg>