<svg xmlns="http://www.w3.org/2000/svg" width="18" height="19" viewBox="0 0 18 19" fill="none">
  <g clip-path="url(#clip0_928_3165)">
    <path d="M3.375 15.7732C3.99632 15.7732 4.5 15.2695 4.5 14.6482C4.5 14.0269 3.99632 13.5232 3.375 13.5232C2.75368 13.5232 2.25 14.0269 2.25 14.6482C2.25 15.2695 2.75368 15.7732 3.375 15.7732Z" fill="white"/>
    <path d="M15.75 10.1482H14.0625V9.02319C14.0622 8.72493 13.9435 8.43898 13.7326 8.22808C13.5217 8.01717 13.2358 7.89854 12.9375 7.89819H10.6875C10.3892 7.89854 10.1033 8.01717 9.89238 8.22808C9.68148 8.43898 9.56284 8.72493 9.5625 9.02319V10.1482H7.875C7.57674 10.1485 7.29079 10.2672 7.07988 10.4781C6.86898 10.689 6.75034 10.9749 6.75 11.2732V15.7732C6.75034 16.0715 6.86898 16.3574 7.07988 16.5683C7.29079 16.7792 7.57674 16.8979 7.875 16.8982H15.75C16.0483 16.8979 16.3342 16.7792 16.5451 16.5683C16.756 16.3574 16.8747 16.0715 16.875 15.7732V11.2732C16.8747 10.9749 16.756 10.689 16.5451 10.4781C16.3342 10.2672 16.0483 10.1485 15.75 10.1482ZM10.6875 9.02319H12.9375V10.1482H10.6875V9.02319ZM15.75 15.7732H7.875V11.2732H15.75V15.7732Z" fill="white"/>
    <path d="M5.625 3.39819H7.875V6.77319H9V3.39819H11.25V6.77319H12.375V3.39819H14.625V6.77319H15.75V3.40095C15.75 3.25285 15.7209 3.10619 15.6642 2.96936C15.6075 2.83253 15.5244 2.7082 15.4197 2.60347C15.315 2.49875 15.1907 2.41568 15.0538 2.35901C14.917 2.30234 14.7703 2.27318 14.6222 2.27319H2.25276C2.10465 2.27318 1.958 2.30234 1.82117 2.35901C1.68433 2.41568 1.56 2.49875 1.45528 2.60347C1.35055 2.7082 1.26749 2.83253 1.21082 2.96936C1.15415 3.10619 1.12499 3.25285 1.125 3.40095V11.2703C1.12497 11.4184 1.15412 11.5651 1.21078 11.702C1.26745 11.8388 1.35051 11.9631 1.45524 12.0679C1.55997 12.1726 1.6843 12.2557 1.82114 12.3124C1.95798 12.369 2.10464 12.3982 2.25276 12.3982H5.625V3.39819ZM4.5 11.2732H2.25V3.39819H4.5V11.2732Z" fill="white"/>
  </g>
  <defs>
    <clipPath id="clip0_928_3165">
      <rect width="18" height="18" fill="white" transform="translate(0 0.0231934)"/>
    </clipPath>
  </defs>
</svg>