<svg xmlns="http://www.w3.org/2000/svg" width="15" height="16" viewBox="0 0 15 16" fill="none">
  <path d="M14.4141 15.5C14.0904 15.5 13.8281 15.2377 13.8281 14.9141C13.8281 13.7509 12.8881 12.8047 11.7327 12.8047H11.2361C10.0806 12.8047 9.14062 13.7509 9.14062 14.9141C9.14062 15.2377 8.8783 15.5 8.55469 15.5C8.23107 15.5 7.96875 15.2377 7.96875 14.9141C7.96875 13.1048 9.43447 11.6328 11.2361 11.6328H11.7326C13.5343 11.6328 15 13.1048 15 14.9141C15 15.2377 14.7377 15.5 14.4141 15.5ZM13.9453 8.26367C13.9453 6.89056 12.8282 5.77344 11.4551 5.77344C10.082 5.77344 8.96484 6.89056 8.96484 8.26367C8.96484 9.63679 10.082 10.7539 11.4551 10.7539C12.8282 10.7539 13.9453 9.63679 13.9453 8.26367ZM12.7734 8.26367C12.7734 8.99061 12.182 9.58203 11.4551 9.58203C10.7281 9.58203 10.1367 8.99061 10.1367 8.26367C10.1367 7.53673 10.7281 6.94531 11.4551 6.94531C12.182 6.94531 12.7734 7.53673 12.7734 8.26367ZM6.79688 14.9141C6.79688 14.5904 6.53455 14.3281 6.21094 14.3281H3.51501C2.22302 14.3281 1.17188 13.277 1.17188 11.985V4.01501C1.17188 2.72302 2.22302 1.67188 3.51501 1.67188H8.90745C10.1995 1.67188 11.2506 2.72302 11.2506 4.01501C11.2506 4.33862 11.5129 4.60095 11.8365 4.60095C12.1601 4.60095 12.4225 4.33862 12.4225 4.01501C12.4225 2.07685 10.8456 0.5 8.90687 0.5H3.51501C1.57685 0.5 0 2.07685 0 4.01501V11.985C0 13.9232 1.57685 15.5 3.51501 15.5H6.21094C6.53455 15.5 6.79688 15.2377 6.79688 14.9141ZM7.76367 7.15039C7.76367 6.82678 7.50135 6.56445 7.17773 6.56445H4.01367C3.69006 6.56445 3.42773 6.82678 3.42773 7.15039C3.42773 7.474 3.69006 7.73633 4.01367 7.73633H7.17773C7.50135 7.73633 7.76367 7.474 7.76367 7.15039ZM8.93555 4.89453C8.93555 4.57092 8.67322 4.30859 8.34961 4.30859H4.01367C3.69006 4.30859 3.42773 4.57092 3.42773 4.89453C3.42773 5.21814 3.69006 5.48047 4.01367 5.48047H8.34961C8.67322 5.48047 8.93555 5.21814 8.93555 4.89453ZM7.76367 11.6328C7.76367 11.3092 7.50135 11.0469 7.17773 11.0469H4.01367C3.69006 11.0469 3.42773 11.3092 3.42773 11.6328C3.42773 11.9564 3.69006 12.2188 4.01367 12.2188H7.17773C7.50135 12.2188 7.76367 11.9564 7.76367 11.6328ZM7.76367 9.37695C7.76367 9.05334 7.50135 8.79102 7.17773 8.79102H4.01367C3.69006 8.79102 3.42773 9.05334 3.42773 9.37695C3.42773 9.70057 3.69006 9.96289 4.01367 9.96289H7.17773C7.50135 9.96289 7.76367 9.70057 7.76367 9.37695Z" fill="#FD853A"/>
</svg>