<svg xmlns="http://www.w3.org/2000/svg" width="20" height="21" viewBox="0 0 20 21" fill="none">
  <path fill-rule="evenodd" clip-rule="evenodd" d="M12.35 3.35649H15.8333C16.75 3.35649 17.5 4.10649 17.5 5.02315V16.6898C17.5 17.6065 16.75 18.3565 15.8333 18.3565H4.16667C4.05 18.3565 3.94167 18.3482 3.83333 18.3315C3.50833 18.2648 3.21667 18.0982 2.99167 17.8732C2.84167 17.7148 2.71667 17.5398 2.63333 17.3398C2.55 17.1398 2.5 16.9148 2.5 16.6898V5.02315C2.5 4.78982 2.55 4.57315 2.63333 4.38149C2.71667 4.18149 2.84167 3.99815 2.99167 3.84815C3.21667 3.62315 3.50833 3.45649 3.83333 3.38982C3.94167 3.36482 4.05 3.35649 4.16667 3.35649H7.65C8 2.38982 8.91667 1.68982 10 1.68982C11.0833 1.68982 12 2.38982 12.35 3.35649ZM5.83333 6.68982H14.1667V8.35649H5.83333V6.68982ZM14.1667 10.0232H5.83333V11.6898H14.1667V10.0232ZM11.6667 13.3565H5.83333V15.0232H11.6667V13.3565ZM10 3.14815C10.3417 3.14815 10.625 3.43149 10.625 3.77315C10.625 4.11482 10.3417 4.39815 10 4.39815C9.65833 4.39815 9.375 4.11482 9.375 3.77315C9.375 3.43149 9.65833 3.14815 10 3.14815ZM4.16667 16.6898H15.8333V5.02315H4.16667V16.6898Z" fill="#EAECF0"/>
</svg>