<svg xmlns="http://www.w3.org/2000/svg" width="19" height="20" viewBox="0 0 19 20" fill="none">
  <path fill-rule="evenodd" clip-rule="evenodd" d="M7.12504 9.99996C8.65296 9.99996 9.89587 8.69163 9.89587 7.08329C9.89587 5.47496 8.65296 4.16663 7.12504 4.16663C5.59713 4.16663 4.35421 5.47496 4.35421 7.08329C4.35421 8.69163 5.59713 9.99996 7.12504 9.99996ZM1.58337 14.375C1.58337 12.4333 5.27254 11.4583 7.12504 11.4583C8.97754 11.4583 12.6667 12.4333 12.6667 14.375V15.8333H1.58337V14.375ZM7.12505 13.125C5.70797 13.125 4.10088 13.6833 3.43588 14.1666H10.8142C10.1492 13.6833 8.54213 13.125 7.12505 13.125ZM8.31254 7.08329C8.31254 6.39163 7.78212 5.83329 7.12504 5.83329C6.46796 5.83329 5.93754 6.39163 5.93754 7.08329C5.93754 7.77496 6.46796 8.33329 7.12504 8.33329C7.78212 8.33329 8.31254 7.77496 8.31254 7.08329ZM12.6984 11.5083C13.6167 12.2083 14.25 13.1416 14.25 14.375V15.8333H17.4167V14.375C17.4167 12.6916 14.6459 11.7333 12.6984 11.5083ZM14.6459 7.08329C14.6459 8.69163 13.403 9.99996 11.875 9.99996C11.4475 9.99996 11.0517 9.89163 10.6875 9.70829C11.1863 8.96663 11.4792 8.05829 11.4792 7.08329C11.4792 6.10829 11.1863 5.19996 10.6875 4.45829C11.0517 4.27496 11.4475 4.16663 11.875 4.16663C13.403 4.16663 14.6459 5.47496 14.6459 7.08329Z" fill="#FAFBFC"/>
</svg>