<svg xmlns="http://www.w3.org/2000/svg" width="130" height="152" viewBox="0 0 130 152" fill="none">
  <g opacity="0.15">
    <path d="M3.02326 149.757C3.02326 148.998 2.34648 148.383 1.51163 148.383C0.676779 148.383 0 148.998 0 149.757C0 150.515 0.676779 151.13 1.51163 151.13C2.34648 151.13 3.02326 150.515 3.02326 149.757Z" fill="#0698A0"/>
    <path d="M3.02326 133.27C3.02326 132.511 2.34648 131.896 1.51163 131.896C0.676779 131.896 0 132.511 0 133.27C0 134.028 0.676779 134.643 1.51163 134.643C2.34648 134.643 3.02326 134.028 3.02326 133.27Z" fill="#0698A0"/>
    <path d="M3.02326 116.783C3.02326 116.024 2.34648 115.409 1.51163 115.409C0.676779 115.409 0 116.024 0 116.783C0 117.541 0.676779 118.156 1.51163 118.156C2.34648 118.156 3.02326 117.541 3.02326 116.783Z" fill="#0698A0"/>
    <path d="M3.02326 100.296C3.02326 99.5369 2.34648 98.9217 1.51163 98.9217C0.676779 98.9217 0 99.5369 0 100.296C0 101.054 0.676779 101.67 1.51163 101.67C2.34648 101.67 3.02326 101.054 3.02326 100.296Z" fill="#0698A0"/>
    <path d="M3.02326 83.8087C3.02326 83.0499 2.34648 82.4348 1.51163 82.4348C0.676779 82.4348 0 83.0499 0 83.8087C0 84.5675 0.676779 85.1826 1.51163 85.1826C2.34648 85.1826 3.02326 84.5675 3.02326 83.8087Z" fill="#0698A0"/>
    <path d="M3.02326 67.3217C3.02326 66.5629 2.34648 65.9478 1.51163 65.9478C0.676779 65.9478 0 66.5629 0 67.3217C0 68.0805 0.676779 68.6956 1.51163 68.6956C2.34648 68.6956 3.02326 68.0805 3.02326 67.3217Z" fill="#0698A0"/>
    <path d="M3.02326 50.8348C3.02326 50.076 2.34648 49.4608 1.51163 49.4608C0.676779 49.4608 0 50.076 0 50.8348C0 51.5936 0.676779 52.2087 1.51163 52.2087C2.34648 52.2087 3.02326 51.5936 3.02326 50.8348Z" fill="#0698A0"/>
    <path d="M3.02326 34.6261C3.02326 33.8673 2.34648 33.2522 1.51163 33.2522C0.676779 33.2522 0 33.8673 0 34.6261C0 35.3849 0.676779 36 1.51163 36C2.34648 36 3.02326 35.3849 3.02326 34.6261Z" fill="#0698A0"/>
    <path d="M21.1629 149.757C21.1629 148.998 20.4861 148.383 19.6513 148.383C18.8164 148.383 18.1396 148.998 18.1396 149.757C18.1396 150.515 18.8164 151.13 19.6513 151.13C20.4861 151.13 21.1629 150.515 21.1629 149.757Z" fill="#0698A0"/>
    <path d="M21.1629 133.27C21.1629 132.511 20.4861 131.896 19.6513 131.896C18.8164 131.896 18.1396 132.511 18.1396 133.27C18.1396 134.028 18.8164 134.643 19.6513 134.643C20.4861 134.643 21.1629 134.028 21.1629 133.27Z" fill="#0698A0"/>
    <path d="M21.1629 116.783C21.1629 116.024 20.4861 115.409 19.6513 115.409C18.8164 115.409 18.1396 116.024 18.1396 116.783C18.1396 117.541 18.8164 118.156 19.6513 118.156C20.4861 118.156 21.1629 117.541 21.1629 116.783Z" fill="#0698A0"/>
    <path d="M21.1629 100.296C21.1629 99.5369 20.4861 98.9217 19.6513 98.9217C18.8164 98.9217 18.1396 99.5369 18.1396 100.296C18.1396 101.054 18.8164 101.67 19.6513 101.67C20.4861 101.67 21.1629 101.054 21.1629 100.296Z" fill="#0698A0"/>
    <path d="M21.1629 83.8087C21.1629 83.0499 20.4861 82.4348 19.6513 82.4348C18.8164 82.4348 18.1396 83.0499 18.1396 83.8087C18.1396 84.5675 18.8164 85.1826 19.6513 85.1826C20.4861 85.1826 21.1629 84.5675 21.1629 83.8087Z" fill="#0698A0"/>
    <path d="M21.1629 67.3217C21.1629 66.5629 20.4861 65.9478 19.6513 65.9478C18.8164 65.9478 18.1396 66.5629 18.1396 67.3217C18.1396 68.0805 18.8164 68.6956 19.6513 68.6956C20.4861 68.6956 21.1629 68.0805 21.1629 67.3217Z" fill="#0698A0"/>
    <path d="M21.1629 50.8348C21.1629 50.076 20.4861 49.4608 19.6513 49.4608C18.8164 49.4608 18.1396 50.076 18.1396 50.8348C18.1396 51.5936 18.8164 52.2087 19.6513 52.2087C20.4861 52.2087 21.1629 51.5936 21.1629 50.8348Z" fill="#0698A0"/>
    <path d="M21.1629 34.6261C21.1629 33.8673 20.4861 33.2522 19.6513 33.2522C18.8164 33.2522 18.1396 33.8673 18.1396 34.6261C18.1396 35.3849 18.8164 36 19.6513 36C20.4861 36 21.1629 35.3849 21.1629 34.6261Z" fill="#0698A0"/>
    <path d="M39.3023 149.757C39.3023 148.998 38.6255 148.383 37.7907 148.383C36.9558 148.383 36.2791 148.998 36.2791 149.757C36.2791 150.515 36.9558 151.13 37.7907 151.13C38.6255 151.13 39.3023 150.515 39.3023 149.757Z" fill="#0698A0"/>
    <path d="M39.3023 133.27C39.3023 132.511 38.6255 131.896 37.7907 131.896C36.9558 131.896 36.2791 132.511 36.2791 133.27C36.2791 134.028 36.9558 134.643 37.7907 134.643C38.6255 134.643 39.3023 134.028 39.3023 133.27Z" fill="#0698A0"/>
    <path d="M39.3023 116.783C39.3023 116.024 38.6255 115.409 37.7907 115.409C36.9558 115.409 36.2791 116.024 36.2791 116.783C36.2791 117.541 36.9558 118.156 37.7907 118.156C38.6255 118.156 39.3023 117.541 39.3023 116.783Z" fill="#0698A0"/>
    <path d="M39.3023 100.296C39.3023 99.5369 38.6255 98.9217 37.7907 98.9217C36.9558 98.9217 36.2791 99.5369 36.2791 100.296C36.2791 101.054 36.9558 101.67 37.7907 101.67C38.6255 101.67 39.3023 101.054 39.3023 100.296Z" fill="#0698A0"/>
    <path d="M39.3023 83.8087C39.3023 83.0499 38.6255 82.4348 37.7907 82.4348C36.9558 82.4348 36.2791 83.0499 36.2791 83.8087C36.2791 84.5675 36.9558 85.1826 37.7907 85.1826C38.6255 85.1826 39.3023 84.5675 39.3023 83.8087Z" fill="#0698A0"/>
    <path d="M39.3023 67.3217C39.3023 66.5629 38.6255 65.9478 37.7907 65.9478C36.9558 65.9478 36.2791 66.5629 36.2791 67.3217C36.2791 68.0805 36.9558 68.6956 37.7907 68.6956C38.6255 68.6956 39.3023 68.0805 39.3023 67.3217Z" fill="#0698A0"/>
    <path d="M39.3023 50.8348C39.3023 50.076 38.6255 49.4608 37.7907 49.4608C36.9558 49.4608 36.2791 50.076 36.2791 50.8348C36.2791 51.5936 36.9558 52.2087 37.7907 52.2087C38.6255 52.2087 39.3023 51.5936 39.3023 50.8348Z" fill="#0698A0"/>
    <path d="M39.3023 34.6261C39.3023 33.8673 38.6255 33.2522 37.7907 33.2522C36.9558 33.2522 36.2791 33.8673 36.2791 34.6261C36.2791 35.3849 36.9558 36 37.7907 36C38.6255 36 39.3023 35.3849 39.3023 34.6261Z" fill="#0698A0"/>
    <path d="M39.3023 17.8609C39.3023 17.1021 38.6255 16.487 37.7907 16.487C36.9558 16.487 36.2791 17.1021 36.2791 17.8609C36.2791 18.6197 36.9558 19.2348 37.7907 19.2348C38.6255 19.2348 39.3023 18.6197 39.3023 17.8609Z" fill="#0698A0"/>
    <path d="M3.02325 14.3739C3.02325 13.6152 2.34648 13 1.51163 13C0.676778 13 0 13.6152 0 14.3739C0 15.1327 0.676778 15.7479 1.51163 15.7479C2.34648 15.7479 3.02325 15.1327 3.02325 14.3739Z" fill="#0698A0"/>
    <path d="M19.0233 14.3739C19.0233 13.6152 18.3465 13 17.5116 13C16.6768 13 16 13.6152 16 14.3739C16 15.1327 16.6768 15.7479 17.5116 15.7479C18.3465 15.7479 19.0233 15.1327 19.0233 14.3739Z" fill="#0698A0"/>
    <path d="M20.0233 2.37395C20.0233 1.61515 19.3465 1.00003 18.5116 1.00003C17.6768 1.00003 17 1.61515 17 2.37395C17 3.13274 17.6768 3.74786 18.5116 3.74786C19.3465 3.74786 20.0233 3.13274 20.0233 2.37395Z" fill="#0698A0"/>
    <path d="M3.02325 3.37395C3.02325 2.61515 2.34648 2.00003 1.51163 2.00003C0.676778 2.00003 0 2.61515 0 3.37395C0 4.13274 0.676778 4.74786 1.51163 4.74786C2.34648 4.74786 3.02325 4.13274 3.02325 3.37395Z" fill="#0698A0"/>
    <path d="M39.3023 1.37389C39.3023 0.615105 38.6255 -1.52588e-05 37.7907 -1.52588e-05C36.9558 -1.52588e-05 36.2791 0.615105 36.2791 1.37389C36.2791 2.13268 36.9558 2.7478 37.7907 2.7478C38.6255 2.7478 39.3023 2.13268 39.3023 1.37389Z" fill="#0698A0"/>
    <path d="M57.4417 149.757C57.4417 148.998 56.7649 148.383 55.9301 148.383C55.0952 148.383 54.4185 148.998 54.4185 149.757C54.4185 150.515 55.0952 151.13 55.9301 151.13C56.7649 151.13 57.4417 150.515 57.4417 149.757Z" fill="#0698A0"/>
    <path d="M57.4417 133.27C57.4417 132.511 56.7649 131.896 55.9301 131.896C55.0952 131.896 54.4185 132.511 54.4185 133.27C54.4185 134.028 55.0952 134.643 55.9301 134.643C56.7649 134.643 57.4417 134.028 57.4417 133.27Z" fill="#0698A0"/>
    <path d="M57.4417 116.783C57.4417 116.024 56.7649 115.409 55.9301 115.409C55.0952 115.409 54.4185 116.024 54.4185 116.783C54.4185 117.541 55.0952 118.156 55.9301 118.156C56.7649 118.156 57.4417 117.541 57.4417 116.783Z" fill="#0698A0"/>
    <path d="M57.4417 100.296C57.4417 99.5369 56.7649 98.9217 55.9301 98.9217C55.0952 98.9217 54.4185 99.5369 54.4185 100.296C54.4185 101.054 55.0952 101.67 55.9301 101.67C56.7649 101.67 57.4417 101.054 57.4417 100.296Z" fill="#0698A0"/>
    <path d="M57.4417 83.8087C57.4417 83.0499 56.7649 82.4348 55.9301 82.4348C55.0952 82.4348 54.4185 83.0499 54.4185 83.8087C54.4185 84.5675 55.0952 85.1826 55.9301 85.1826C56.7649 85.1826 57.4417 84.5675 57.4417 83.8087Z" fill="#0698A0"/>
    <path d="M57.4417 67.3217C57.4417 66.5629 56.7649 65.9478 55.9301 65.9478C55.0952 65.9478 54.4185 66.5629 54.4185 67.3217C54.4185 68.0805 55.0952 68.6956 55.9301 68.6956C56.7649 68.6956 57.4417 68.0805 57.4417 67.3217Z" fill="#0698A0"/>
    <path d="M57.4417 50.8348C57.4417 50.076 56.7649 49.4608 55.9301 49.4608C55.0952 49.4608 54.4185 50.076 54.4185 50.8348C54.4185 51.5936 55.0952 52.2087 55.9301 52.2087C56.7649 52.2087 57.4417 51.5936 57.4417 50.8348Z" fill="#0698A0"/>
    <path d="M57.4417 34.6261C57.4417 33.8673 56.7649 33.2522 55.9301 33.2522C55.0952 33.2522 54.4185 33.8673 54.4185 34.6261C54.4185 35.3849 55.0952 36 55.9301 36C56.7649 36 57.4417 35.3849 57.4417 34.6261Z" fill="#0698A0"/>
    <path d="M57.4417 17.8609C57.4417 17.1021 56.7649 16.487 55.9301 16.487C55.0952 16.487 54.4185 17.1021 54.4185 17.8609C54.4185 18.6197 55.0952 19.2348 55.9301 19.2348C56.7649 19.2348 57.4417 18.6197 57.4417 17.8609Z" fill="#0698A0"/>
    <path d="M57.4417 1.37389C57.4417 0.615105 56.7649 -1.52588e-05 55.9301 -1.52588e-05C55.0952 -1.52588e-05 54.4185 0.615105 54.4185 1.37389C54.4185 2.13268 55.0952 2.7478 55.9301 2.7478C56.7649 2.7478 57.4417 2.13268 57.4417 1.37389Z" fill="#0698A0"/>
    <path d="M75.5814 149.757C75.5814 148.998 74.9046 148.383 74.0697 148.383C73.2349 148.383 72.5581 148.998 72.5581 149.757C72.5581 150.515 73.2349 151.13 74.0697 151.13C74.9046 151.13 75.5814 150.515 75.5814 149.757Z" fill="#0698A0"/>
    <path d="M75.5814 133.27C75.5814 132.511 74.9046 131.896 74.0697 131.896C73.2349 131.896 72.5581 132.511 72.5581 133.27C72.5581 134.028 73.2349 134.643 74.0697 134.643C74.9046 134.643 75.5814 134.028 75.5814 133.27Z" fill="#0698A0"/>
    <path d="M75.5814 116.783C75.5814 116.024 74.9046 115.409 74.0697 115.409C73.2349 115.409 72.5581 116.024 72.5581 116.783C72.5581 117.541 73.2349 118.156 74.0697 118.156C74.9046 118.156 75.5814 117.541 75.5814 116.783Z" fill="#0698A0"/>
    <path d="M75.5814 100.296C75.5814 99.5369 74.9046 98.9217 74.0697 98.9217C73.2349 98.9217 72.5581 99.5369 72.5581 100.296C72.5581 101.054 73.2349 101.67 74.0697 101.67C74.9046 101.67 75.5814 101.054 75.5814 100.296Z" fill="#0698A0"/>
    <path d="M75.5814 83.8087C75.5814 83.0499 74.9046 82.4348 74.0697 82.4348C73.2349 82.4348 72.5581 83.0499 72.5581 83.8087C72.5581 84.5675 73.2349 85.1826 74.0697 85.1826C74.9046 85.1826 75.5814 84.5675 75.5814 83.8087Z" fill="#0698A0"/>
    <path d="M75.5814 67.3217C75.5814 66.5629 74.9046 65.9478 74.0697 65.9478C73.2349 65.9478 72.5581 66.5629 72.5581 67.3217C72.5581 68.0805 73.2349 68.6956 74.0697 68.6956C74.9046 68.6956 75.5814 68.0805 75.5814 67.3217Z" fill="#0698A0"/>
    <path d="M75.5814 50.8348C75.5814 50.076 74.9046 49.4608 74.0697 49.4608C73.2349 49.4608 72.5581 50.076 72.5581 50.8348C72.5581 51.5936 73.2349 52.2087 74.0697 52.2087C74.9046 52.2087 75.5814 51.5936 75.5814 50.8348Z" fill="#0698A0"/>
    <path d="M75.5814 17.8609C75.5814 17.1021 74.9046 16.487 74.0697 16.487C73.2349 16.487 72.5581 17.1021 72.5581 17.8609C72.5581 18.6197 73.2349 19.2348 74.0697 19.2348C74.9046 19.2348 75.5814 18.6197 75.5814 17.8609Z" fill="#0698A0"/>
    <path d="M75.5814 1.37389C75.5814 0.615105 74.9046 -1.52588e-05 74.0697 -1.52588e-05C73.2349 -1.52588e-05 72.5581 0.615105 72.5581 1.37389C72.5581 2.13268 73.2349 2.7478 74.0697 2.7478C74.9046 2.7478 75.5814 2.13268 75.5814 1.37389Z" fill="#0698A0"/>
    <path d="M93.721 149.757C93.721 148.998 93.0442 148.383 92.2094 148.383C91.3745 148.383 90.6978 148.998 90.6978 149.757C90.6978 150.515 91.3745 151.13 92.2094 151.13C93.0442 151.13 93.721 150.515 93.721 149.757Z" fill="#0698A0"/>
    <path d="M93.721 133.27C93.721 132.511 93.0442 131.896 92.2094 131.896C91.3745 131.896 90.6978 132.511 90.6978 133.27C90.6978 134.028 91.3745 134.643 92.2094 134.643C93.0442 134.643 93.721 134.028 93.721 133.27Z" fill="#0698A0"/>
    <path d="M93.721 116.783C93.721 116.024 93.0442 115.409 92.2094 115.409C91.3745 115.409 90.6978 116.024 90.6978 116.783C90.6978 117.541 91.3745 118.156 92.2094 118.156C93.0442 118.156 93.721 117.541 93.721 116.783Z" fill="#0698A0"/>
    <path d="M93.721 100.296C93.721 99.5369 93.0442 98.9217 92.2094 98.9217C91.3745 98.9217 90.6978 99.5369 90.6978 100.296C90.6978 101.054 91.3745 101.67 92.2094 101.67C93.0442 101.67 93.721 101.054 93.721 100.296Z" fill="#0698A0"/>
    <path d="M93.721 83.8087C93.721 83.0499 93.0442 82.4348 92.2094 82.4348C91.3745 82.4348 90.6978 83.0499 90.6978 83.8087C90.6978 84.5675 91.3745 85.1826 92.2094 85.1826C93.0442 85.1826 93.721 84.5675 93.721 83.8087Z" fill="#0698A0"/>
    <path d="M93.721 67.3217C93.721 66.5629 93.0442 65.9478 92.2094 65.9478C91.3745 65.9478 90.6978 66.5629 90.6978 67.3217C90.6978 68.0805 91.3745 68.6956 92.2094 68.6956C93.0442 68.6956 93.721 68.0805 93.721 67.3217Z" fill="#0698A0"/>
    <path d="M93.721 50.8348C93.721 50.076 93.0442 49.4608 92.2094 49.4608C91.3745 49.4608 90.6978 50.076 90.6978 50.8348C90.6978 51.5936 91.3745 52.2087 92.2094 52.2087C93.0442 52.2087 93.721 51.5936 93.721 50.8348Z" fill="#0698A0"/>
    <path d="M76.0233 34.3739C76.0233 33.6152 75.3465 33 74.5116 33C73.6768 33 73 33.6152 73 34.3739C73 35.1327 73.6768 35.7479 74.5116 35.7479C75.3465 35.7479 76.0233 35.1327 76.0233 34.3739Z" fill="#0698A0"/>
    <path d="M95.0233 34.6261C95.0233 33.8673 94.3465 33.2522 93.5116 33.2522C92.6768 33.2522 92 33.8673 92 34.6261C92 35.3849 92.6768 36 93.5116 36C94.3465 36 95.0233 35.3849 95.0233 34.6261Z" fill="#0698A0"/>
    <path d="M93.721 17.8609C93.721 17.1021 93.0442 16.487 92.2094 16.487C91.3745 16.487 90.6978 17.1021 90.6978 17.8609C90.6978 18.6197 91.3745 19.2348 92.2094 19.2348C93.0442 19.2348 93.721 18.6197 93.721 17.8609Z" fill="#0698A0"/>
    <path d="M93.721 1.37389C93.721 0.615105 93.0442 -1.52588e-05 92.2094 -1.52588e-05C91.3745 -1.52588e-05 90.6978 0.615105 90.6978 1.37389C90.6978 2.13268 91.3745 2.7478 92.2094 2.7478C93.0442 2.7478 93.721 2.13268 93.721 1.37389Z" fill="#0698A0"/>
    <path d="M111.861 149.757C111.861 148.998 111.184 148.383 110.349 148.383C109.514 148.383 108.837 148.998 108.837 149.757C108.837 150.515 109.514 151.13 110.349 151.13C111.184 151.13 111.861 150.515 111.861 149.757Z" fill="#0698A0"/>
    <path d="M111.861 133.27C111.861 132.511 111.184 131.896 110.349 131.896C109.514 131.896 108.837 132.511 108.837 133.27C108.837 134.028 109.514 134.643 110.349 134.643C111.184 134.643 111.861 134.028 111.861 133.27Z" fill="#0698A0"/>
    <path d="M111.861 116.783C111.861 116.024 111.184 115.409 110.349 115.409C109.514 115.409 108.837 116.024 108.837 116.783C108.837 117.541 109.514 118.156 110.349 118.156C111.184 118.156 111.861 117.541 111.861 116.783Z" fill="#0698A0"/>
    <path d="M111.861 100.296C111.861 99.5369 111.184 98.9217 110.349 98.9217C109.514 98.9217 108.837 99.5369 108.837 100.296C108.837 101.054 109.514 101.67 110.349 101.67C111.184 101.67 111.861 101.054 111.861 100.296Z" fill="#0698A0"/>
    <path d="M111.861 83.8087C111.861 83.0499 111.184 82.4348 110.349 82.4348C109.514 82.4348 108.837 83.0499 108.837 83.8087C108.837 84.5675 109.514 85.1826 110.349 85.1826C111.184 85.1826 111.861 84.5675 111.861 83.8087Z" fill="#0698A0"/>
    <path d="M111.861 67.3217C111.861 66.5629 111.184 65.9478 110.349 65.9478C109.514 65.9478 108.837 66.5629 108.837 67.3217C108.837 68.0805 109.514 68.6956 110.349 68.6956C111.184 68.6956 111.861 68.0805 111.861 67.3217Z" fill="#0698A0"/>
    <path d="M111.861 50.8348C111.861 50.076 111.184 49.4608 110.349 49.4608C109.514 49.4608 108.837 50.076 108.837 50.8348C108.837 51.5936 109.514 52.2087 110.349 52.2087C111.184 52.2087 111.861 51.5936 111.861 50.8348Z" fill="#0698A0"/>
    <path d="M111.861 34.6261C111.861 33.8673 111.184 33.2522 110.349 33.2522C109.514 33.2522 108.837 33.8673 108.837 34.6261C108.837 35.3849 109.514 36 110.349 36C111.184 36 111.861 35.3849 111.861 34.6261Z" fill="#0698A0"/>
    <path d="M111.861 17.8609C111.861 17.1021 111.184 16.487 110.349 16.487C109.514 16.487 108.837 17.1021 108.837 17.8609C108.837 18.6197 109.514 19.2348 110.349 19.2348C111.184 19.2348 111.861 18.6197 111.861 17.8609Z" fill="#0698A0"/>
    <path d="M111.861 1.37389C111.861 0.615105 111.184 -1.52588e-05 110.349 -1.52588e-05C109.514 -1.52588e-05 108.837 0.615105 108.837 1.37389C108.837 2.13268 109.514 2.7478 110.349 2.7478C111.184 2.7478 111.861 2.13268 111.861 1.37389Z" fill="#0698A0"/>
    <path d="M130 149.757C130 148.998 129.323 148.383 128.488 148.383C127.653 148.383 126.977 148.998 126.977 149.757C126.977 150.515 127.653 151.13 128.488 151.13C129.323 151.13 130 150.515 130 149.757Z" fill="#0698A0"/>
    <path d="M130 133.27C130 132.511 129.323 131.896 128.488 131.896C127.653 131.896 126.977 132.511 126.977 133.27C126.977 134.028 127.653 134.643 128.488 134.643C129.323 134.643 130 134.028 130 133.27Z" fill="#0698A0"/>
    <path d="M130 116.783C130 116.024 129.323 115.409 128.488 115.409C127.653 115.409 126.977 116.024 126.977 116.783C126.977 117.541 127.653 118.156 128.488 118.156C129.323 118.156 130 117.541 130 116.783Z" fill="#0698A0"/>
    <path d="M130 100.296C130 99.5369 129.323 98.9217 128.488 98.9217C127.653 98.9217 126.977 99.5369 126.977 100.296C126.977 101.054 127.653 101.67 128.488 101.67C129.323 101.67 130 101.054 130 100.296Z" fill="#0698A0"/>
    <path d="M130 83.8087C130 83.0499 129.323 82.4348 128.488 82.4348C127.653 82.4348 126.977 83.0499 126.977 83.8087C126.977 84.5675 127.653 85.1826 128.488 85.1826C129.323 85.1826 130 84.5675 130 83.8087Z" fill="#0698A0"/>
    <path d="M130 67.3217C130 66.5629 129.323 65.9478 128.488 65.9478C127.653 65.9478 126.977 66.5629 126.977 67.3217C126.977 68.0805 127.653 68.6956 128.488 68.6956C129.323 68.6956 130 68.0805 130 67.3217Z" fill="#0698A0"/>
    <path d="M130 50.8348C130 50.076 129.323 49.4608 128.488 49.4608C127.653 49.4608 126.977 50.076 126.977 50.8348C126.977 51.5936 127.653 52.2087 128.488 52.2087C129.323 52.2087 130 51.5936 130 50.8348Z" fill="#0698A0"/>
    <path d="M130 34.6261C130 33.8673 129.323 33.2522 128.488 33.2522C127.653 33.2522 126.977 33.8673 126.977 34.6261C126.977 35.3849 127.653 36 128.488 36C129.323 36 130 35.3849 130 34.6261Z" fill="#0698A0"/>
    <path d="M130 17.8609C130 17.1021 129.323 16.487 128.488 16.487C127.653 16.487 126.977 17.1021 126.977 17.8609C126.977 18.6197 127.653 19.2348 128.488 19.2348C129.323 19.2348 130 18.6197 130 17.8609Z" fill="#0698A0"/>
    <path d="M130 1.37389C130 0.615105 129.323 -1.52588e-05 128.488 -1.52588e-05C127.653 -1.52588e-05 126.977 0.615105 126.977 1.37389C126.977 2.13268 127.653 2.7478 128.488 2.7478C129.323 2.7478 130 2.13268 130 1.37389Z" fill="#0698A0"/>
  </g>
</svg>