<svg xmlns="http://www.w3.org/2000/svg" width="122" height="27" viewBox="0 0 122 27" fill="none">
  <path d="M27.3903 12.3483C27.5579 11.4053 27.1388 10.4204 26.3425 9.8965C25.7348 9.49834 24.9594 9.37261 24.2679 9.60312C24.184 9.62407 24.1002 9.66599 23.9954 9.7079C23.5973 9.8965 23.241 10.1899 22.8848 10.4413C21.9208 11.091 20.6006 11.0491 19.6367 10.3994C18.7984 9.85459 18.2955 8.89062 18.2955 7.9057C18.2955 7.06748 18.7356 6.41785 19.1128 5.70535C19.2385 5.4958 19.3433 5.26528 19.4271 5.03477C19.7624 4.13367 19.7624 3.08589 19.3642 2.1848C19.0708 1.51421 18.5679 0.92745 17.9183 0.550247C15.697 -0.790919 12.8889 0.445471 12.2602 2.89729C11.2753 6.75314 13.329 11.0491 16.5562 13.1865C18.1278 14.2343 19.951 14.8211 21.837 14.884C22.7171 14.9049 23.6182 14.842 24.4774 14.6325C24.7079 14.5696 24.9385 14.5068 25.169 14.4439C25.4833 14.3391 25.7767 14.2343 26.0491 14.0876C26.7197 13.7314 27.2436 13.1865 27.3903 12.3483ZM25.9234 13.5637C25.2947 13.92 24.4984 14.0667 23.7859 14.0876C22.6752 14.1086 21.5436 13.8152 20.5587 13.1446C19.0289 12.1178 18.1698 10.4833 18.0859 8.78585C18.2326 9.47739 18.5679 10.1061 19.1337 10.609C19.2594 10.7347 19.4061 10.8395 19.5528 10.9443C20.2863 11.4263 21.1874 11.5939 22.0466 11.4263C22.9267 11.2377 23.4087 10.609 24.184 10.2318C24.8965 9.87554 25.5462 10.0013 26.0072 10.3785C26.9712 11.091 27.2436 12.7884 25.9234 13.5637Z" fill="#4FBFA3"/>
  <path d="M5.47062 1.99617C4.56952 2.33146 3.91989 3.19064 3.87798 4.13365C3.83607 4.8671 4.12945 5.60055 4.65334 6.08253C4.71621 6.1454 4.80003 6.20827 4.8629 6.25018C5.21915 6.50165 5.65922 6.64834 6.05738 6.8579C7.10516 7.36083 7.71288 8.53435 7.65001 9.68692C7.58714 10.6718 7.02134 11.5939 6.16215 12.0968C5.4287 12.5159 4.63239 12.4531 3.85702 12.474C3.60556 12.474 3.35409 12.495 3.12357 12.5369C2.15961 12.7045 1.25852 13.2284 0.692713 14.0248C0.252643 14.6325 0.00117393 15.345 0.00117393 16.0784C-0.0616932 18.6769 2.41108 20.4791 4.8629 19.8085C8.6978 18.7398 11.3801 14.8001 11.6316 10.9443C11.7573 9.0792 11.3592 7.17223 10.479 5.51673C10.0599 4.74137 9.53603 4.00791 8.94927 3.35829C8.78162 3.19064 8.61397 3.023 8.44633 2.85535C8.21581 2.62484 7.96435 2.43624 7.69193 2.26859C7.00039 1.89139 6.26694 1.70279 5.47062 1.99617ZM7.25185 2.66675C7.88053 3.023 8.40442 3.65167 8.76066 4.25939C9.34742 5.20239 9.64081 6.334 9.55698 7.52848C9.43125 9.35163 8.44633 10.9233 7.02134 11.8454C7.54523 11.3843 7.92244 10.7557 8.06913 10.0432C8.11104 9.87552 8.13199 9.68692 8.15295 9.49832C8.21581 8.61818 7.90148 7.73804 7.31472 7.08841C6.707 6.41783 5.93164 6.31305 5.21915 5.83107C4.56952 5.391 4.33901 4.76233 4.42283 4.17557C4.59048 3.00205 5.91069 1.91235 7.25185 2.66675Z" fill="#4FBFA3"/>
  <path d="M7.48235 26.179C8.2158 26.7867 9.28454 26.9125 10.1437 26.4933C10.7934 26.179 11.2963 25.5503 11.443 24.8378C11.4639 24.754 11.4849 24.6492 11.4849 24.5654C11.5268 24.1253 11.443 23.6853 11.4011 23.2452C11.3172 22.0717 12.0297 20.961 13.0566 20.4581C13.9577 20.018 15.0264 20.039 15.8856 20.5419C16.619 20.961 16.9543 21.6735 17.3735 22.3441C17.4992 22.5537 17.6459 22.7632 17.7926 22.9518C18.4212 23.7062 19.3223 24.2092 20.2863 24.3139C21.0197 24.3978 21.7742 24.2511 22.4238 23.8948C24.687 22.6375 25.0223 19.5989 23.2201 17.8177C20.3911 15.0306 15.6132 14.6743 12.1555 16.3717C10.479 17.21 9.03307 18.4883 8.04816 20.0809C7.58713 20.8353 7.20993 21.6526 6.9375 22.4908C6.87464 22.7213 6.81177 22.9518 6.7489 23.1823C6.68603 23.4967 6.62317 23.811 6.62317 24.1254C6.62317 24.9007 6.81177 25.6132 7.48235 26.179ZM7.16802 24.293C7.16802 23.5805 7.4614 22.8051 7.79669 22.1765C8.32058 21.2125 9.15881 20.3743 10.2275 19.8504C11.8831 19.0331 13.7272 19.1169 15.236 19.8923C14.5654 19.6618 13.8319 19.6618 13.1404 19.8923C12.9728 19.9342 12.8051 20.018 12.6375 20.1019C11.8411 20.5 11.2544 21.1916 10.982 22.0298C10.6886 22.889 11.0029 23.6224 10.961 24.4816C10.9191 25.257 10.479 25.7599 9.91321 25.9904C8.7816 26.4305 7.16802 25.8228 7.16802 24.293Z" fill="#4FBFA3"/>
  <path d="M24.5403 3.06492V1.91235H25.0432C25.1061 1.91235 25.1899 1.93331 25.2318 1.95427C25.2947 1.97522 25.3366 2.01713 25.3576 2.05905C25.3785 2.10096 25.3995 2.16382 25.3995 2.22669V2.24765C25.3995 2.31051 25.3785 2.37338 25.3576 2.41529C25.3156 2.4572 25.2737 2.49911 25.2318 2.52007V2.54103C25.2737 2.54103 25.3156 2.56198 25.3366 2.58294C25.3576 2.60389 25.3785 2.64581 25.3785 2.68772V3.06492H25.148V2.70867C25.148 2.68772 25.148 2.66676 25.127 2.6458C25.1061 2.62485 25.0851 2.62485 25.0642 2.62485H24.7289V3.06492H24.5403ZM24.7289 2.43625H25.0013C25.0642 2.43625 25.1061 2.41529 25.127 2.39434C25.169 2.37338 25.169 2.33147 25.169 2.2686V2.24765C25.169 2.20573 25.148 2.16382 25.127 2.12191C25.0851 2.10095 25.0432 2.08 25.0013 2.08H24.7289V2.43625Z" fill="#4FBFA3"/>
  <path d="M24.8965 3.73547C24.205 3.73547 23.6602 3.16967 23.6602 2.49909C23.6602 1.80755 24.226 1.2627 24.8965 1.2627C25.5881 1.2627 26.1329 1.8285 26.1329 2.49909C26.1329 3.16967 25.5881 3.73547 24.8965 3.73547ZM24.8965 1.51417C24.3726 1.51417 23.9326 1.95424 23.9326 2.47813C23.9326 3.00202 24.3726 3.4421 24.8965 3.4421C25.4204 3.4421 25.8605 3.00202 25.8605 2.47813C25.8605 1.95424 25.4204 1.51417 24.8965 1.51417Z" fill="#4FBFA3"/>
  <path d="M31.4976 18.0901V8.95341H33.3626V10.0222H33.656C33.8236 9.70782 34.117 9.41444 34.4942 9.16297C34.8714 8.9115 35.3953 8.78577 36.045 8.78577C36.7155 8.78577 37.2604 8.93246 37.6795 9.20488C38.0986 9.47731 38.4129 9.83355 38.6225 10.2736H38.9159C39.1254 9.8545 39.4398 9.49826 39.8379 9.22583C40.2361 8.93245 40.8019 8.80672 41.5563 8.80672C42.1431 8.80672 42.667 8.93245 43.128 9.16297C43.589 9.39348 43.9453 9.77068 44.2177 10.2317C44.4901 10.7137 44.6158 11.3005 44.6158 11.992V18.0691H42.7089V12.1387C42.7089 11.5729 42.5622 11.1538 42.2478 10.8604C41.9545 10.567 41.5144 10.3994 40.9695 10.3994C40.3828 10.3994 39.9008 10.588 39.5446 10.9652C39.1883 11.3424 38.9997 11.8872 38.9997 12.6207V18.0691H37.0927V12.1387C37.0927 11.5729 36.946 11.1538 36.6317 10.8604C36.3383 10.567 35.8983 10.3994 35.3534 10.3994C34.7667 10.3994 34.2847 10.588 33.9284 10.9652C33.5722 11.3424 33.3836 11.8872 33.3836 12.6207V18.0691H31.4976V18.0901Z" fill="white"/>
  <path d="M47.822 21.7994V20.1229H52.9143C53.2496 20.1229 53.4382 19.9343 53.4382 19.5571V16.7491H53.1448C53.04 17.0005 52.8724 17.231 52.6419 17.4615C52.4113 17.6921 52.118 17.8807 51.7198 18.0274C51.3426 18.174 50.8606 18.2579 50.2739 18.2579C49.5823 18.2579 48.9746 18.1112 48.4298 17.7968C47.8849 17.4825 47.4658 17.0424 47.1515 16.4766C46.8371 15.9108 46.6904 15.2402 46.6904 14.4649V8.97449H48.5974V14.3182C48.5974 15.1145 48.786 15.7013 49.1842 16.0785C49.5823 16.4557 50.1272 16.6443 50.8397 16.6443C51.615 16.6443 52.2437 16.3928 52.7257 15.8689C53.2077 15.345 53.4382 14.5906 53.4382 13.6057V8.97449H55.3451V19.9762C55.3451 20.542 55.1775 20.9821 54.8632 21.3174C54.5279 21.6527 54.0878 21.8203 53.522 21.8203H47.822V21.7994Z" fill="white"/>
  <path d="M61.9043 18.3626C61.0242 18.3626 60.2278 18.174 59.5153 17.7968C58.8028 17.4196 58.237 16.8957 57.8389 16.1832C57.4198 15.4707 57.2102 14.6325 57.2102 13.6476V13.4171C57.2102 12.4321 57.4198 11.5939 57.8389 10.8814C58.258 10.1899 58.8238 9.64504 59.5153 9.26783C60.2278 8.89063 61.0242 8.70203 61.9043 8.70203C62.7844 8.70203 63.5179 8.86968 64.1465 9.18401C64.7543 9.49835 65.2572 9.93842 65.6344 10.4623C66.0116 10.9862 66.2631 11.573 66.3679 12.2226L64.5238 12.6207C64.4609 12.2226 64.3351 11.8454 64.1256 11.5101C63.937 11.1748 63.6436 10.9024 63.2874 10.7138C62.9311 10.5252 62.4701 10.4204 61.9252 10.4204C61.4013 10.4204 60.9194 10.5461 60.5003 10.7766C60.0811 11.0072 59.7458 11.3634 59.4944 11.8035C59.2429 12.2645 59.1172 12.8094 59.1172 13.438V13.6057C59.1172 14.2553 59.2429 14.8001 59.4944 15.2612C59.7458 15.7222 60.0811 16.0575 60.5003 16.288C60.9194 16.5185 61.4013 16.6442 61.9252 16.6442C62.7216 16.6442 63.3293 16.4347 63.7484 16.0156C64.1675 15.5965 64.4399 15.0726 64.5447 14.4229L66.3888 14.842C66.2421 15.4707 65.9697 16.0575 65.5925 16.5814C65.2153 17.1053 64.7124 17.5453 64.1046 17.8597C63.5388 18.195 62.7844 18.3626 61.9043 18.3626Z" fill="white"/>
  <path d="M72.445 18.3626C71.523 18.3626 70.7266 18.174 70.0141 17.7968C69.3017 17.4196 68.7358 16.8747 68.3377 16.1832C67.9395 15.4707 67.73 14.6534 67.73 13.6894V13.417C67.73 12.4531 67.9395 11.6148 68.3377 10.9233C68.7358 10.2318 69.3017 9.68691 70.0141 9.3097C70.7266 8.9325 71.5439 8.7439 72.445 8.7439C73.3671 8.7439 74.1634 8.9325 74.8968 9.3097C75.6093 9.68691 76.1751 10.2318 76.5733 10.9233C76.9715 11.6148 77.181 12.4531 77.181 13.417V13.6894C77.181 14.6534 76.9715 15.4916 76.5733 16.1832C76.1751 16.8957 75.6093 17.4196 74.8968 17.7968C74.1843 18.174 73.3671 18.3626 72.445 18.3626ZM72.445 16.6442C73.2832 16.6442 73.9748 16.3718 74.4987 15.8479C75.0226 15.303 75.295 14.5696 75.295 13.6266V13.4589C75.295 12.5159 75.0435 11.7615 74.5196 11.2376C73.9957 10.6928 73.3252 10.4413 72.466 10.4413C71.6487 10.4413 70.9572 10.7137 70.4333 11.2376C69.9094 11.7825 69.6369 12.5159 69.6369 13.4589V13.6266C69.6369 14.5696 69.9094 15.324 70.4333 15.8479C70.9362 16.3927 71.6277 16.6442 72.445 16.6442Z" fill="white"/>
  <path d="M80.8902 18.0902L77.8097 8.95349H79.8214L82.2523 16.6862H82.5457L84.9766 8.95349H86.9883L83.9078 18.0902H80.8902Z" fill="white"/>
  <path d="M92.2691 18.3626C91.3471 18.3626 90.5298 18.174 89.8383 17.7758C89.1468 17.3776 88.6019 16.8328 88.2247 16.1203C87.8265 15.4078 87.6379 14.5905 87.6379 13.6475V13.417C87.6379 12.474 87.8265 11.6358 88.2037 10.9233C88.5809 10.2108 89.1258 9.66595 89.7964 9.26779C90.4879 8.86963 91.2842 8.68103 92.1853 8.68103C93.0655 8.68103 93.8408 8.86963 94.4905 9.26779C95.161 9.66595 95.664 10.1898 96.0412 10.8814C96.4184 11.5729 96.607 12.3902 96.607 13.3122V14.0247H89.5868C89.6078 14.8211 89.8802 15.4707 90.3831 15.9317C90.8861 16.4137 91.5357 16.6442 92.2901 16.6442C93.0026 16.6442 93.5474 16.4766 93.9037 16.1622C94.2599 15.8479 94.5533 15.4707 94.7419 15.0516L96.3136 15.8688C96.146 16.2251 95.8945 16.5813 95.5592 16.9585C95.2239 17.3357 94.8048 17.671 94.2809 17.9225C93.778 18.2368 93.0864 18.3626 92.2691 18.3626ZM89.5868 12.5997H94.6371C94.5952 11.9082 94.3438 11.3634 93.9037 10.9862C93.4636 10.588 92.8769 10.3994 92.1644 10.3994C91.4519 10.3994 90.8651 10.588 90.4041 10.9862C89.964 11.3634 89.6916 11.9082 89.5868 12.5997Z" fill="white"/>
  <path d="M98.4302 18.0901V8.95341H100.295V10.0222H100.589C100.735 9.64495 100.966 9.35157 101.301 9.18393C101.636 8.99533 102.035 8.9115 102.517 8.9115H103.606V10.6299H102.433C101.825 10.6299 101.301 10.7975 100.924 11.1328C100.526 11.4681 100.337 11.992 100.337 12.7045V18.0692H98.4302V18.0901Z" fill="white"/>
  <path d="M104.947 18.3626C104.507 18.3626 104.151 18.2159 103.858 17.9435C103.564 17.6501 103.418 17.2939 103.418 16.8538C103.418 16.4137 103.564 16.0575 103.858 15.7641C104.151 15.4917 104.507 15.345 104.947 15.345C105.387 15.345 105.744 15.4917 106.037 15.7641C106.33 16.0575 106.477 16.4137 106.477 16.8328C106.477 17.2729 106.33 17.6501 106.037 17.9225C105.744 18.2159 105.387 18.3626 104.947 18.3626Z" fill="white"/>
  <path d="M112.093 18.3626C111.318 18.3626 110.626 18.174 109.977 17.7968C109.327 17.4196 108.824 16.8957 108.447 16.2042C108.07 15.5126 107.881 14.6744 107.881 13.6685V13.3961C107.881 12.4112 108.07 11.573 108.468 10.8605C108.866 10.1689 109.369 9.62408 110.019 9.26783C110.668 8.89063 111.36 8.70203 112.114 8.70203C112.994 8.70203 113.686 8.86968 114.168 9.18401C114.65 9.49835 115.006 9.87555 115.237 10.2737H115.53V8.9535H117.395V15.9317C117.395 16.309 117.563 16.4976 117.919 16.4976H118.694V18.0902H117.081C116.641 18.0902 116.305 17.9645 116.033 17.713C115.76 17.4615 115.635 17.1262 115.635 16.7071V16.5814H115.362C115.132 17.0634 114.755 17.4825 114.273 17.8178C113.728 18.174 113.015 18.3626 112.093 18.3626ZM112.638 16.6862C113.476 16.6862 114.168 16.4137 114.692 15.8898C115.216 15.3659 115.488 14.5906 115.488 13.6057V13.438C115.488 12.4531 115.216 11.7197 114.692 11.1748C114.147 10.6509 113.476 10.3785 112.638 10.3785C111.821 10.3785 111.15 10.6509 110.605 11.1748C110.06 11.6987 109.809 12.4531 109.809 13.438V13.6057C109.809 14.5906 110.081 15.345 110.605 15.8898C111.15 16.4347 111.821 16.6862 112.638 16.6862Z" fill="white"/>
  <path d="M120.098 18.0902V8.95349H122.005V18.0902H120.098Z" fill="white"/>
</svg>