<svg width="106" height="23" viewBox="0 0 106 23" fill="none" xmlns="http://www.w3.org/2000/svg">
<path d="M23.7972 10.6216C23.9429 9.8105 23.5787 8.9633 22.8869 8.51266C22.3589 8.17018 21.6852 8.06203 21.0844 8.26031C21.0116 8.27833 20.9388 8.31438 20.8477 8.35044C20.5018 8.51266 20.1923 8.76502 19.8828 8.98133C19.0453 9.54012 17.8983 9.50406 17.0608 8.94527C16.3325 8.47661 15.8955 7.64744 15.8955 6.80024C15.8955 6.07923 16.2779 5.52044 16.6056 4.90757C16.7148 4.72732 16.8059 4.52903 16.8787 4.33075C17.17 3.55566 17.17 2.65439 16.8241 1.87929C16.5692 1.30248 16.1322 0.797764 15.5678 0.473305C13.6379 -0.680324 11.1982 0.38318 10.652 2.49216C9.79631 5.80884 11.5806 9.50407 14.3844 11.3427C15.7499 12.2439 17.3339 12.7486 18.9725 12.8027C19.7371 12.8207 20.52 12.7667 21.2665 12.5864C21.4668 12.5323 21.667 12.4783 21.8673 12.4242C22.1404 12.3341 22.3953 12.2439 22.632 12.1178C23.2146 11.8113 23.6698 11.3427 23.7972 10.6216ZM22.5227 11.6671C21.9765 11.9736 21.2847 12.0997 20.6657 12.1178C19.7007 12.1358 18.7176 11.8834 17.8618 11.3066C16.5328 10.4234 15.7863 9.01738 15.7135 7.55732C15.8409 8.15216 16.1322 8.69292 16.6238 9.12553C16.733 9.23368 16.8605 9.32381 16.9879 9.41394C17.6252 9.82852 18.408 9.97272 19.1545 9.82852C19.9192 9.66629 20.3379 9.12553 21.0116 8.80107C21.6306 8.49464 22.195 8.60279 22.5956 8.92725C23.4331 9.54011 23.6698 11.0002 22.5227 11.6671Z" fill="#4FBFA3"/>
<path d="M4.75295 1.71705C3.97007 2.00546 3.40566 2.7445 3.36925 3.55565C3.33283 4.18654 3.58772 4.81743 4.04289 5.23201C4.09751 5.28609 4.17034 5.34017 4.22496 5.37622C4.53447 5.59253 4.91681 5.7187 5.26273 5.89896C6.17307 6.33157 6.70106 7.341 6.64644 8.3324C6.59182 9.17959 6.10024 9.97271 5.35377 10.4053C4.71654 10.7658 4.02468 10.7118 3.35104 10.7298C3.13256 10.7298 2.91408 10.7478 2.71381 10.7839C1.8763 10.9281 1.09342 11.3787 0.601839 12.0637C0.2195 12.5864 0.00101993 13.1993 0.00101993 13.8302C-0.0535999 16.0653 2.09478 17.6155 4.22496 17.0387C7.55677 16.1194 9.88722 12.7306 10.1057 9.41392C10.2149 7.80966 9.86901 6.16934 9.10433 4.74533C8.7402 4.07839 8.28504 3.44749 7.77525 2.8887C7.6296 2.7445 7.48394 2.6003 7.33829 2.45609C7.13802 2.25781 6.91954 2.09559 6.68285 1.95138C6.08204 1.62693 5.4448 1.46469 4.75295 1.71705ZM6.30051 2.29387C6.84671 2.6003 7.30188 3.14106 7.61139 3.6638C8.12117 4.47495 8.37607 5.44832 8.30324 6.47578C8.194 8.04399 7.33829 9.3959 6.10024 10.189C6.55541 9.79246 6.88312 9.2517 7.01057 8.63883C7.04698 8.49463 7.06519 8.3324 7.0834 8.17017C7.13802 7.4131 6.86492 6.65603 6.35513 6.09724C5.82714 5.52042 5.15349 5.4303 4.53447 5.01571C3.97006 4.63718 3.76979 4.09641 3.84262 3.5917C3.98827 2.58228 5.13529 1.64495 6.30051 2.29387Z" fill="#4FBFA3"/>
<path d="M6.50087 22.5184C7.1381 23.0412 8.06663 23.1493 8.81311 22.7888C9.37751 22.5184 9.81447 21.9776 9.94192 21.3648C9.96012 21.2927 9.97833 21.2026 9.97833 21.1305C10.0147 20.7519 9.94192 20.3734 9.9055 19.9948C9.83268 18.9854 10.4517 18.0301 11.3438 17.5975C12.1267 17.2189 13.0552 17.2369 13.8017 17.6696C14.439 18.0301 14.7303 18.6429 15.0944 19.2198C15.2036 19.4 15.3311 19.5803 15.4585 19.7425C16.0047 20.3914 16.7876 20.824 17.6251 20.9141C18.2623 20.9862 18.9178 20.8601 19.4822 20.5536C21.4485 19.4721 21.7398 16.8584 20.174 15.3263C17.7161 12.9289 13.565 12.6224 10.5609 14.0825C9.10441 14.8035 7.84815 15.9031 6.99244 17.273C6.5919 17.9219 6.26418 18.6249 6.02749 19.3459C5.97287 19.5442 5.91825 19.7425 5.86363 19.9408C5.80901 20.2112 5.75439 20.4815 5.75439 20.7519C5.75439 21.4189 5.91826 22.0317 6.50087 22.5184ZM6.22777 20.8961C6.22777 20.2833 6.48266 19.6163 6.77397 19.0755C7.22913 18.2464 7.95739 17.5254 8.88593 17.0747C10.3243 16.3717 11.9264 16.4438 13.2373 17.1108C12.6547 16.9125 12.0175 16.9125 11.4167 17.1108C11.271 17.1468 11.1253 17.2189 10.9797 17.291C10.2878 17.6335 9.77806 18.2284 9.54137 18.9494C9.28648 19.6884 9.55958 20.3193 9.52316 21.0583C9.48675 21.7253 9.10441 22.1579 8.61283 22.3562C7.62967 22.7347 6.22777 22.212 6.22777 20.8961Z" fill="#4FBFA3"/>
<path d="M21.321 2.63636V1.64496H21.758C21.8126 1.64496 21.8854 1.66299 21.9219 1.68101C21.9765 1.69904 22.0129 1.73509 22.0311 1.77114C22.0493 1.80719 22.0675 1.86126 22.0675 1.91534V1.93337C22.0675 1.98744 22.0493 2.04152 22.0311 2.07757C21.9947 2.11362 21.9583 2.14967 21.9219 2.1677V2.18572C21.9583 2.18572 21.9947 2.20375 22.0129 2.22178C22.0311 2.2398 22.0493 2.27585 22.0493 2.3119V2.63636H21.849V2.32993C21.849 2.3119 21.849 2.29388 21.8308 2.27585C21.8126 2.25782 21.7944 2.25782 21.7762 2.25782H21.4849V2.63636H21.321ZM21.4849 2.0956H21.7216C21.7762 2.0956 21.8126 2.07757 21.8308 2.05955C21.8672 2.04152 21.8672 2.00547 21.8672 1.95139V1.93337C21.8672 1.89732 21.849 1.86126 21.8308 1.82521C21.7944 1.80719 21.758 1.78917 21.7216 1.78917H21.4849V2.0956Z" fill="#4FBFA3"/>
<path d="M21.6306 3.21319C21.0298 3.21319 20.5564 2.7265 20.5564 2.14969C20.5564 1.55485 21.048 1.08618 21.6306 1.08618C22.2314 1.08618 22.7048 1.57287 22.7048 2.14969C22.7048 2.7265 22.2314 3.21319 21.6306 3.21319ZM21.6306 1.30249C21.1754 1.30249 20.7931 1.68103 20.7931 2.13166C20.7931 2.5823 21.1754 2.96083 21.6306 2.96083C22.0858 2.96083 22.4681 2.5823 22.4681 2.13166C22.4681 1.68103 22.0858 1.30249 21.6306 1.30249Z" fill="#4FBFA3"/>
<path d="M27.3655 15.5606V7.70151H28.9859V8.62081H29.2408C29.3864 8.35043 29.6413 8.09807 29.969 7.88177C30.2967 7.66546 30.7519 7.55731 31.3163 7.55731C31.8989 7.55731 32.3723 7.68349 32.7364 7.91782C33.1006 8.15215 33.3737 8.45858 33.5557 8.83712H33.8106C33.9927 8.47661 34.2658 8.17017 34.6117 7.93584C34.9576 7.68349 35.4492 7.57533 36.1047 7.57533C36.6144 7.57533 37.0696 7.68349 37.4702 7.88177C37.8707 8.08005 38.1802 8.40451 38.4169 8.80107C38.6536 9.21565 38.7628 9.72037 38.7628 10.3152V15.5426H37.106V10.4414C37.106 9.9547 36.9786 9.59419 36.7055 9.34183C36.4506 9.08948 36.0682 8.94527 35.5949 8.94527C35.0851 8.94527 34.6663 9.1075 34.3568 9.43196C34.0473 9.75642 33.8835 10.2251 33.8835 10.856V15.5426H32.2267V10.4414C32.2267 9.9547 32.0992 9.59419 31.8261 9.34183C31.5712 9.08948 31.1889 8.94527 30.7155 8.94527C30.2057 8.94527 29.787 9.1075 29.4774 9.43196C29.1679 9.75642 29.0041 10.2251 29.0041 10.856V15.5426H27.3655V15.5606Z" fill="#070707"/>
<path d="M41.5483 18.7511V17.3091H45.9726C46.2639 17.3091 46.4277 17.1469 46.4277 16.8224V14.407H46.1728C46.0818 14.6233 45.9361 14.8216 45.7359 15.0198C45.5356 15.2181 45.2807 15.3804 44.9348 15.5065C44.6071 15.6327 44.1883 15.7048 43.6785 15.7048C43.0777 15.7048 42.5497 15.5786 42.0763 15.3083C41.603 15.0379 41.2388 14.6593 40.9657 14.1727C40.6926 13.686 40.5652 13.1092 40.5652 12.4422V7.71954H42.222V12.316C42.222 13.001 42.3859 13.5057 42.7318 13.8302C43.0777 14.1546 43.5511 14.3169 44.1701 14.3169C44.8437 14.3169 45.3899 14.1006 45.8087 13.6499C46.2274 13.1993 46.4277 12.5504 46.4277 11.7032V7.71954H48.0845V17.1829C48.0845 17.6696 47.9389 18.0481 47.6658 18.3365C47.3745 18.6249 46.9921 18.7692 46.5005 18.7692H41.5483V18.7511Z" fill="#070707"/>
<path d="M53.7834 15.7949C53.0187 15.7949 52.3268 15.6327 51.7078 15.3082C51.0888 14.9838 50.5972 14.5331 50.2513 13.9203C49.8871 13.3074 49.7051 12.5864 49.7051 11.7392V11.5409C49.7051 10.6937 49.8871 9.97269 50.2513 9.35982C50.6154 8.76498 51.107 8.29632 51.7078 7.97186C52.3268 7.6474 53.0187 7.48517 53.7834 7.48517C54.548 7.48517 55.1853 7.62938 55.7315 7.89976C56.2595 8.17014 56.6964 8.54867 57.0241 8.99931C57.3519 9.44995 57.5703 9.95466 57.6614 10.5134L56.0592 10.8559C56.0046 10.5134 55.8953 10.189 55.7133 9.90058C55.5494 9.61218 55.2945 9.37784 54.985 9.21561C54.6755 9.05338 54.2749 8.96326 53.8016 8.96326C53.3464 8.96326 52.9277 9.07141 52.5635 9.26969C52.1994 9.46797 51.9081 9.77441 51.6896 10.1529C51.4711 10.5495 51.3619 11.0182 51.3619 11.5589V11.7031C51.3619 12.2619 51.4711 12.7306 51.6896 13.1271C51.9081 13.5237 52.1994 13.8121 52.5635 14.0104C52.9277 14.2087 53.3464 14.3168 53.8016 14.3168C54.4934 14.3168 55.0214 14.1366 55.3856 13.7761C55.7497 13.4155 55.9864 12.9649 56.0774 12.4061L57.6796 12.7666C57.5521 13.3074 57.3155 13.8121 56.9877 14.2627C56.66 14.7134 56.2231 15.0919 55.6951 15.3623C55.2035 15.6507 54.548 15.7949 53.7834 15.7949Z" fill="#070707"/>
<path d="M62.9412 15.7949C62.1401 15.7949 61.4483 15.6327 60.8292 15.3082C60.2102 14.9838 59.7186 14.5151 59.3727 13.9203C59.0268 13.3074 58.8447 12.6044 58.8447 11.7752V11.5409C58.8447 10.7117 59.0268 9.99073 59.3727 9.39589C59.7186 8.80105 60.2102 8.33239 60.8292 8.00793C61.4483 7.68347 62.1583 7.52124 62.9412 7.52124C63.7423 7.52124 64.4342 7.68347 65.0714 8.00793C65.6904 8.33239 66.182 8.80105 66.5279 9.39589C66.8738 9.99073 67.0559 10.7117 67.0559 11.5409V11.7752C67.0559 12.6044 66.8738 13.3254 66.5279 13.9203C66.182 14.5331 65.6904 14.9838 65.0714 15.3082C64.4524 15.6327 63.7423 15.7949 62.9412 15.7949ZM62.9412 14.3168C63.6695 14.3168 64.2703 14.0825 64.7255 13.6319C65.1806 13.1632 65.4173 12.5323 65.4173 11.7212V11.577C65.4173 10.7658 65.1988 10.1169 64.7437 9.66627C64.2885 9.19761 63.7059 8.9813 62.9594 8.9813C62.2494 8.9813 61.6485 9.21563 61.1934 9.66627C60.7382 10.1349 60.5015 10.7658 60.5015 11.577V11.7212C60.5015 12.5323 60.7382 13.1812 61.1934 13.6319C61.6303 14.1005 62.2312 14.3168 62.9412 14.3168Z" fill="#070707"/>
<path d="M70.2784 15.5606L67.6021 7.70148H69.3499L71.4619 14.3529H71.7167L73.8287 7.70148H75.5765L72.9002 15.5606H70.2784Z" fill="#070707"/>
<path d="M80.1648 15.7949C79.3637 15.7949 78.6536 15.6327 78.0528 15.2902C77.452 14.9477 76.9786 14.4791 76.6509 13.8662C76.305 13.2533 76.1411 12.5503 76.1411 11.7392V11.5409C76.1411 10.7298 76.305 10.0088 76.6327 9.39588C76.9604 8.78302 77.4338 8.31436 78.0164 7.97187C78.6172 7.62939 79.3091 7.46716 80.0919 7.46716C80.8566 7.46716 81.5303 7.62939 82.0947 7.97187C82.6773 8.31436 83.1142 8.765 83.442 9.35984C83.7697 9.95468 83.9335 10.6577 83.9335 11.4508V12.0637H77.8343C77.8525 12.7486 78.0892 13.3074 78.5262 13.704C78.9631 14.1186 79.5275 14.3168 80.183 14.3168C80.802 14.3168 81.2754 14.1726 81.5849 13.9023C81.8944 13.6319 82.1493 13.3074 82.3131 12.9469L83.6786 13.6499C83.533 13.9563 83.3145 14.2628 83.0232 14.5872C82.7319 14.9117 82.3678 15.2001 81.9126 15.4164C81.4757 15.6868 80.8748 15.7949 80.1648 15.7949ZM77.8343 10.8379H82.2221C82.1857 10.2431 81.9672 9.77442 81.5849 9.44996C81.2025 9.10748 80.6928 8.94525 80.0737 8.94525C79.4547 8.94525 78.9449 9.10748 78.5444 9.44996C78.162 9.77442 77.9254 10.2431 77.8343 10.8379Z" fill="#070707"/>
<path d="M85.5173 15.5606V7.70152H87.1377V8.62082H87.3926C87.5201 8.29636 87.7203 8.044 88.0116 7.8998C88.303 7.73757 88.6489 7.66547 89.0676 7.66547H90.0144V9.14356H88.9948C88.4668 9.14356 88.0116 9.28776 87.6839 9.57617C87.338 9.86457 87.1741 10.3152 87.1741 10.9281V15.5426H85.5173V15.5606Z" fill="#070707"/>
<path d="M91.1797 15.795C90.7973 15.795 90.4878 15.6688 90.2329 15.4344C89.978 15.1821 89.8506 14.8756 89.8506 14.4971C89.8506 14.1186 89.978 13.8121 90.2329 13.5598C90.4878 13.3255 90.7973 13.1993 91.1797 13.1993C91.562 13.1993 91.8715 13.3255 92.1264 13.5598C92.3813 13.8121 92.5088 14.1186 92.5088 14.4791C92.5088 14.8576 92.3813 15.1821 92.1264 15.4164C91.8715 15.6688 91.562 15.795 91.1797 15.795Z" fill="#070707"/>
<path d="M97.3883 15.7949C96.7146 15.7949 96.1138 15.6327 95.5494 15.3082C94.985 14.9838 94.5481 14.5331 94.2203 13.9383C93.8926 13.3434 93.7288 12.6224 93.7288 11.7572V11.5229C93.7288 10.6757 93.8926 9.95466 94.2385 9.34179C94.5845 8.74695 95.0214 8.27829 95.5858 7.97186C96.1502 7.6474 96.7511 7.48517 97.4065 7.48517C98.1712 7.48517 98.772 7.62938 99.1907 7.89976C99.6095 8.17014 99.919 8.49459 100.119 8.83708H100.374V7.70148H101.995V13.704C101.995 14.0284 102.14 14.1906 102.45 14.1906H103.123V15.5606H101.721C101.339 15.5606 101.048 15.4524 100.811 15.2361C100.574 15.0198 100.465 14.7314 100.465 14.3709V14.2627H100.229C100.028 14.6773 99.7005 15.0378 99.2818 15.3262C98.8084 15.6327 98.1894 15.7949 97.3883 15.7949ZM97.8617 14.3529C98.5899 14.3529 99.1907 14.1185 99.6459 13.6679C100.101 13.2173 100.338 12.5503 100.338 11.7031V11.5589C100.338 10.7117 100.101 10.0808 99.6459 9.61218C99.1725 9.16154 98.5899 8.92721 97.8617 8.92721C97.1516 8.92721 96.569 9.16154 96.0956 9.61218C95.6222 10.0628 95.4038 10.7117 95.4038 11.5589V11.7031C95.4038 12.5503 95.6405 13.1992 96.0956 13.6679C96.569 14.1366 97.1516 14.3529 97.8617 14.3529Z" fill="#070707"/>
<path d="M104.343 15.5606V7.70148H106V15.5606H104.343Z" fill="#070707"/>
</svg>
