<svg xmlns="http://www.w3.org/2000/svg" width="20" height="21" viewBox="0 0 20 21" fill="none">
  <g clip-path="url(#clip0_928_3129)">
    <path d="M10 0.856567L2.5 4.1899V9.1899C2.5 13.8149 5.7 18.1399 10 19.1899C14.3 18.1399 17.5 13.8149 17.5 9.1899V4.1899L10 0.856567ZM15.8333 9.1899C15.8333 10.7316 15.4083 12.2316 14.6833 13.5316L13.475 12.3232C14.55 10.7066 14.3667 8.50657 12.9417 7.08157C11.3167 5.45657 8.675 5.45657 7.05 7.08157C5.425 8.70657 5.425 11.3482 7.05 12.9732C8.475 14.3982 10.675 14.5732 12.2917 13.5066L13.725 14.9399C12.7333 16.1232 11.45 17.0316 10 17.4732C6.65 16.4316 4.16667 12.9566 4.16667 9.1899V5.27323L10 2.68157L15.8333 5.27323V9.1899ZM10 12.5232C8.61667 12.5232 7.5 11.4066 7.5 10.0232C7.5 8.6399 8.61667 7.52323 10 7.52323C11.3833 7.52323 12.5 8.6399 12.5 10.0232C12.5 11.4066 11.3833 12.5232 10 12.5232Z" fill="#EAECF0"/>
  </g>
  <defs>
    <clipPath id="clip0_928_3129">
      <rect width="20" height="20" fill="white" transform="translate(0 0.0231934)"/>
    </clipPath>
  </defs>
</svg>