<svg xmlns="http://www.w3.org/2000/svg" width="18" height="18" viewBox="0 0 18 18" fill="none">
  <mask id="mask0_857_7618" style="mask-type:luminance" maskUnits="userSpaceOnUse" x="0" y="0" width="18" height="18">
    <path d="M18 0H0V18H18V0Z" fill="white"/>
  </mask>
  <g mask="url(#mask0_857_7618)">
    <path d="M3.30002 8.8512C3.46572 8.8512 3.60001 8.7169 3.60001 8.55121C3.60001 8.38552 3.46572 8.25122 3.30002 8.25122C3.13433 8.25122 3 8.38552 3 8.55121C3 8.7169 3.13433 8.8512 3.30002 8.8512Z" fill="#6938EF"/>
    <path d="M4.19731 9.74471C4.49118 9.52642 4.69488 9.20808 4.77001 8.8498H6.4908L6.49049 8.24983H4.77001C4.62594 7.55117 4.00972 7.05061 3.29633 7.05279C2.58294 7.05497 1.96981 7.55929 1.83 8.25883H1.209C0.872869 8.25834 0.600513 7.98595 0.600021 7.64982V7.34983H1.2C1.36569 7.34983 1.50002 7.2155 1.50002 7.04981C1.50002 6.88411 1.36569 6.74982 1.2 6.74982H0.603009C0.608142 6.59151 0.712626 6.4537 0.863693 6.40602C0.907779 6.39372 1.95631 6.09971 3.07291 5.66022C3.14917 5.62897 3.22001 5.58593 3.2829 5.53271L5.41892 3.72371C5.8582 3.35253 6.4149 3.14918 6.99002 3.14982H9.01502C9.63634 3.15091 10.2524 3.26393 10.8336 3.48341L12.6261 3.77482C12.4161 3.65181 11.8425 3.28482 11.6145 3.16873C10.8082 2.76225 9.91797 2.55026 9.01502 2.54981H6.99002C6.27315 2.54935 5.57938 2.80311 5.03192 3.2659L2.89622 5.0749C2.88272 5.08633 2.86753 5.09564 2.85122 5.1025C1.76672 5.5294 0.713118 5.82489 0.696314 5.82971C0.281716 5.95318 -0.00185447 6.33522 9.13095e-06 6.76782V7.64982C0.000817549 8.31719 0.541627 8.85796 1.209 8.85881H1.8327C1.90882 9.21068 2.10914 9.5234 2.397 9.73961L0.299998 9.73483C0.134306 9.73483 9.13095e-06 9.86913 9.13095e-06 10.0348C9.13095e-06 10.2005 0.134306 10.3348 0.299998 10.3348L6.8058 10.3498L6.6231 9.74981L4.19731 9.74471ZM3.30002 9.44982C2.80295 9.44982 2.40002 9.04686 2.40002 8.54982C2.40002 8.05278 2.80295 7.64982 3.30002 7.64982C3.79706 7.64982 4.20002 8.05278 4.20002 8.54982C4.20002 9.04686 3.79706 9.44982 3.30002 9.44982Z" fill="#6938EF"/>
    <path d="M6.98848 3.75122C6.55553 3.75164 6.1365 3.90422 5.80466 4.18231L4.45765 5.32232C4.36164 5.40367 4.32659 5.53628 4.3699 5.65444C4.41321 5.7726 4.52564 5.85117 4.65147 5.85121H7.51523L7.95412 5.2512H5.47015L6.19015 4.64131C6.41399 4.45396 6.69658 4.35127 6.98848 4.3512H8.94802L10.0151 3.79053C9.82879 3.76514 9.20153 3.75203 9.01348 3.75122H6.98848Z" fill="#6938EF"/>
    <path d="M9.88987 8.85635C9.96898 9.23485 10.1864 9.57031 10.4996 9.79709L8.22848 9.79119L8.55322 10.4143L13.8989 10.4258C14.0705 10.4258 14.2097 10.2866 14.2097 10.115C14.2097 9.94335 14.0705 9.80423 13.8989 9.80423L12.3202 9.80081C12.633 9.57577 12.8511 9.24247 12.9321 8.86568H12.9566C13.6482 8.86517 14.2088 8.30486 14.2097 7.61326V7.3025C14.2097 7.13086 14.0705 6.9917 13.8989 6.9917C13.7272 6.9917 13.5881 7.13086 13.5881 7.3025V7.61326C13.5876 7.96146 13.3054 8.24364 12.9572 8.24415H12.9355C12.7906 7.51948 12.1555 6.99705 11.4165 6.99479C10.6775 6.99254 10.0391 7.51107 9.88987 8.23483H8.00781L8.00785 8.85635H9.88987ZM11.4127 7.61326C11.9276 7.61326 12.345 8.0307 12.345 8.54559C12.345 9.06048 11.9276 9.47792 11.4127 9.47792C10.8978 9.47792 10.4804 9.06048 10.4804 8.54559C10.4804 8.0307 10.8978 7.61326 11.4127 7.61326Z" fill="#6938EF"/>
    <path d="M11.4045 8.23901C11.5761 8.23901 11.7153 8.37827 11.7153 8.5498C11.7153 8.72132 11.5761 8.86058 11.4045 8.86058C11.233 8.86058 11.0938 8.72132 11.0938 8.5498C11.0938 8.37827 11.233 8.23901 11.4045 8.23901Z" fill="#6938EF"/>
    <path d="M14.4845 6.29038C14.4229 6.20094 14.3177 6.15183 14.2095 6.16195C14.1014 6.17208 14.0071 6.2399 13.9632 6.33925C13.9193 6.4386 13.9324 6.55391 13.9977 6.64078C14.3968 7.19759 14.6108 7.8658 14.6093 8.55089C14.6072 10.3725 13.131 11.8488 11.3093 11.8509C10.6236 11.8543 9.9543 11.6408 9.39714 11.241C9.31009 11.1784 9.19629 11.167 9.09856 11.2111C9.00082 11.2551 8.93406 11.348 8.92337 11.4547C8.91269 11.5613 8.95969 11.6656 9.04674 11.7282C10.5978 12.8295 12.7172 12.6511 14.0623 11.3059C15.4074 9.96083 15.5858 7.84147 14.4845 6.29038Z" fill="#6938EF"/>
    <path d="M8.54774 10.3547L8.23425 9.75324C8.12087 9.46405 8.04919 9.16019 8.02127 8.85081L8.02124 8.25084C8.12875 7.07518 8.85613 6.04651 9.92868 5.55323C11.0012 5.05995 12.2556 5.17723 13.2181 5.86074C13.3527 5.95749 13.5402 5.92687 13.637 5.79233C13.7337 5.65778 13.7031 5.47026 13.5685 5.37351C12.0177 4.26939 9.89619 4.44697 8.55045 5.79352V5.79324C7.81863 6.52203 7.40695 7.51203 7.40625 8.54481V8.55083V8.55592C7.40576 9.36501 7.65916 10.1539 8.13075 10.8113C8.19241 10.9008 8.2976 10.9499 8.40574 10.9398C8.51388 10.9296 8.60814 10.8618 8.65208 10.7625C8.69603 10.6631 8.68288 10.5478 8.61766 10.4609C8.59306 10.4264 8.57115 10.3901 8.54774 10.3547Z" fill="#6938EF"/>
    <path d="M17.5376 13.3058L15.5717 11.3426C15.5919 11.3117 15.1774 11.8641 15.2084 11.8274L17.1125 13.7284C17.3693 13.9846 17.3698 14.4004 17.1137 14.6573C16.8575 14.9141 16.4417 14.9146 16.1849 14.6585L14.2424 12.7133C14.2629 12.6989 13.6781 13.0651 13.721 13.042L15.761 15.0838C16.252 15.5745 17.0477 15.5741 17.5383 15.0831C18.0289 14.5921 18.0286 13.7964 17.5376 13.3058Z" fill="#6938EF"/>
    <path d="M11.3078 3.76587C13.9483 3.76587 16.0922 5.90974 16.0922 8.55023C16.0922 11.1907 13.9483 13.3346 11.3078 13.3346C8.66731 13.3346 6.52344 11.1907 6.52344 8.55023C6.52344 5.90974 8.66731 3.76587 11.3078 3.76587Z" stroke="#6938EF" stroke-width="0.632812" stroke-miterlimit="10"/>
  </g>
</svg>