<svg xmlns="http://www.w3.org/2000/svg" width="20" height="21" viewBox="0 0 20 21" fill="none">
  <path fill-rule="evenodd" clip-rule="evenodd" d="M2.29163 5.02319C2.29163 4.33153 2.84996 3.77319 3.54163 3.77319C4.23329 3.77319 4.79163 4.33153 4.79163 5.02319C4.79163 5.71486 4.23329 6.27319 3.54163 6.27319C2.84996 6.27319 2.29163 5.71486 2.29163 5.02319ZM2.29163 10.0232C2.29163 9.33153 2.84996 8.77319 3.54163 8.77319C4.23329 8.77319 4.79163 9.33153 4.79163 10.0232C4.79163 10.7149 4.23329 11.2732 3.54163 11.2732C2.84996 11.2732 2.29163 10.7149 2.29163 10.0232ZM3.54163 13.7732C2.84996 13.7732 2.29163 14.3399 2.29163 15.0232C2.29163 15.7065 2.85829 16.2732 3.54163 16.2732C4.22496 16.2732 4.79163 15.7065 4.79163 15.0232C4.79163 14.3399 4.23329 13.7732 3.54163 13.7732ZM17.7083 15.8565H6.04163V14.1899H17.7083V15.8565ZM6.04163 10.8565H17.7083V9.18986H6.04163V10.8565ZM6.04163 5.85653V4.18986H17.7083V5.85653H6.04163Z" fill="#EAECF0"/>
</svg>