<svg xmlns="http://www.w3.org/2000/svg" width="20" height="21" viewBox="0 0 20 21" fill="none">
  <path fill-rule="evenodd" clip-rule="evenodd" d="M16.2518 10.9535C16.2518 11.2368 16.2268 11.5035 16.1935 11.7702L17.9518 13.1452C18.1102 13.2702 18.1518 13.4952 18.0518 13.6785L16.3852 16.5618C16.3102 16.6952 16.1685 16.7702 16.0268 16.7702C15.9768 16.7702 15.9268 16.7618 15.8768 16.7452L13.8018 15.9118C13.3685 16.2368 12.9018 16.5202 12.3935 16.7285L12.0768 18.9368C12.0518 19.1368 11.8768 19.2868 11.6685 19.2868H8.33515C8.12682 19.2868 7.95182 19.1368 7.92682 18.9368L7.61015 16.7285C7.10182 16.5202 6.63515 16.2452 6.20182 15.9118L4.12682 16.7452C4.08515 16.7618 4.03515 16.7702 3.98515 16.7702C3.83515 16.7702 3.69349 16.6952 3.61849 16.5618L1.95182 13.6785C1.85182 13.4952 1.89349 13.2702 2.05182 13.1452L3.81015 11.7702C3.77682 11.5035 3.75182 11.2285 3.75182 10.9535C3.75182 10.6785 3.77682 10.4035 3.81015 10.1368L2.05182 8.76185C1.89349 8.63685 1.84349 8.41185 1.95182 8.22851L3.61849 5.34518C3.69349 5.21184 3.83515 5.13685 3.97682 5.13685C4.02682 5.13685 4.07682 5.14518 4.12682 5.16184L6.20182 5.99518C6.63515 5.67018 7.10182 5.38684 7.61015 5.17851L7.92682 2.97018C7.95182 2.77018 8.12682 2.62018 8.33515 2.62018H11.6685C11.8768 2.62018 12.0518 2.77018 12.0768 2.97018L12.3935 5.17851C12.9018 5.38684 13.3685 5.66185 13.8018 5.99518L15.8768 5.16184C15.9185 5.14518 15.9685 5.13685 16.0185 5.13685C16.1685 5.13685 16.3102 5.21184 16.3852 5.34518L18.0518 8.22851C18.1518 8.41185 18.1102 8.63685 17.9518 8.76185L16.1935 10.1368C16.2268 10.4035 16.2518 10.6702 16.2518 10.9535ZM14.5852 10.9535C14.5852 10.7785 14.5768 10.6035 14.5435 10.3452L14.4268 9.40351L15.1685 8.82018L16.0602 8.11184L15.4768 7.10351L14.4185 7.52851L13.5352 7.88684L12.7768 7.30351C12.4435 7.05351 12.1102 6.86185 11.7518 6.71184L10.8685 6.35351L10.7352 5.41184L10.5768 4.28684H9.4185L9.25184 5.41184L9.1185 6.35351L8.23517 6.71184C7.8935 6.85351 7.55184 7.05351 7.1935 7.32018L6.4435 7.88684L5.57684 7.53684L4.5185 7.11185L3.93517 8.12018L4.83517 8.82018L5.57684 9.40351L5.46017 10.3452C5.43517 10.5952 5.4185 10.7868 5.4185 10.9535C5.4185 11.1202 5.43517 11.3118 5.46017 11.5702L5.57684 12.5118L4.83517 13.0952L3.93517 13.7952L4.5185 14.8035L5.57684 14.3785L6.46017 14.0202L7.2185 14.6035C7.55184 14.8535 7.88517 15.0452 8.24351 15.1952L9.12684 15.5535L9.26017 16.4952L9.4185 17.6202H10.5852L10.7518 16.4952L10.8852 15.5535L11.7685 15.1952C12.1102 15.0535 12.4518 14.8535 12.8102 14.5868L13.5602 14.0202L14.4268 14.3702L15.4852 14.7952L16.0685 13.7868L15.1685 13.0868L14.4268 12.5035L14.5435 11.5618C14.5685 11.3118 14.5852 11.1285 14.5852 10.9535ZM10.0018 7.62018C8.16013 7.62018 6.66846 9.11185 6.66846 10.9535C6.66846 12.7952 8.16013 14.2868 10.0018 14.2868C11.8435 14.2868 13.3351 12.7952 13.3351 10.9535C13.3351 9.11185 11.8435 7.62018 10.0018 7.62018ZM8.33513 10.9535C8.33513 11.8702 9.08513 12.6202 10.0018 12.6202C10.9185 12.6202 11.6685 11.8702 11.6685 10.9535C11.6685 10.0368 10.9185 9.28684 10.0018 9.28684C9.08513 9.28684 8.33513 10.0368 8.33513 10.9535Z" fill="#FAFBFC"/>
</svg>