<svg xmlns="http://www.w3.org/2000/svg" width="159" height="159" viewBox="0 0 159 159" fill="none">
  <path d="M119.636 85.8029L108.854 24.6352C108.592 23.1601 107.374 22.0393 105.88 21.9082C104.386 21.7772 102.993 22.67 102.479 24.0771L93.4196 48.9692C93.2205 49.5176 93.1674 50.1046 93.2693 50.6772L100.072 89.2529C100.353 90.859 101.751 91.9895 103.328 91.9895C103.517 91.9895 103.711 91.9702 103.905 91.9361L116.953 89.6361C117.817 89.4858 118.588 88.9957 119.088 88.2774C119.593 87.5548 119.792 86.6666 119.636 85.8029Z" fill="#CACFD6"/>
  <path d="M103.918 12.7131C99.3526 6.19149 92.5204 1.83909 84.679 0.456202C82.9588 0.155276 81.207 0 79.4704 0C64.9961 0 52.6662 10.3594 50.148 24.6349C48.7651 32.4761 50.5216 40.3855 55.0876 46.9068C59.6537 53.4285 66.4858 57.7809 74.327 59.1638C76.0447 59.4647 77.7965 59.62 79.5337 59.62C94.0105 59.62 106.34 49.2605 108.858 34.985C110.241 27.1439 108.484 19.2344 103.918 12.7131ZM89.2888 31.5351C88.4494 36.2953 84.337 39.7455 79.5191 39.7455C78.9368 39.7455 78.3546 39.6971 77.7772 39.5952C72.3814 38.6443 68.7665 33.481 69.7175 28.0855C70.5569 23.3253 74.6667 19.8704 79.4853 19.8704C80.0673 19.8704 80.6495 19.9238 81.2269 20.0257C83.8423 20.4866 86.1206 21.9375 87.6441 24.1113C89.1624 26.2852 89.7497 28.9196 89.2888 31.5351Z" fill="#E6E9ED"/>
  <path d="M71.091 58.4019L74.609 38.4545C71.0522 36.4359 68.9706 32.3357 69.7178 28.0851C69.9991 26.5035 57.0193 23.7715 56.869 24.6352L53.4141 44.2239C53.9237 45.141 54.4768 46.0338 55.0883 46.9071C56.219 48.5229 57.4901 50.0077 58.8829 51.3421L62.8179 29.046L69.3395 30.1959L64.8269 55.7675C66.7967 56.8787 68.893 57.7616 71.091 58.4019Z" fill="#CACFD6"/>
  <path d="M67.0318 24.2471L53.984 21.9471C53.1203 21.7968 52.2275 21.9909 51.5095 22.4956C50.7915 23.0002 50.3011 23.7716 50.1458 24.6356L39.3641 85.8033C39.2088 86.667 39.4078 87.5552 39.9125 88.2781C40.4171 88.9961 41.1836 89.4865 42.0475 89.6368L55.0954 91.9368C55.2895 91.9706 55.4836 91.9902 55.6727 91.9902C57.2497 91.9902 58.6472 90.8595 58.9286 89.2536L69.715 28.0858C70.0355 26.2853 68.8321 24.5673 67.0318 24.2471Z" fill="#E6E9ED"/>
  <path d="M137.778 150.513L126.166 84.653C125.846 82.848 124.129 81.6446 122.328 81.9651L96.2375 86.565C95.3738 86.7153 94.6021 87.2054 94.0974 87.9287C93.5978 88.6467 93.3987 89.5349 93.549 90.4035L105.165 156.263C105.447 157.87 106.844 159 108.421 159C108.61 159 108.804 158.985 108.998 158.952L135.089 154.347C135.957 154.196 136.724 153.706 137.229 152.988C137.734 152.27 137.928 151.377 137.778 150.513Z" fill="#84CAFF"/>
  <path d="M135.483 137.465L128.471 97.6956C128.316 96.8319 127.826 96.0602 127.108 95.5556C126.39 95.0559 125.497 94.8568 124.633 95.0071L111.59 97.3071C109.785 97.6273 108.586 99.3449 108.902 101.145L115.914 140.915C116.069 141.783 116.559 142.55 117.277 143.055C117.835 143.448 118.5 143.652 119.174 143.652C119.369 143.652 119.558 143.637 119.752 143.603L132.795 141.303C133.663 141.153 134.43 140.663 134.934 139.939C135.439 139.222 135.633 138.334 135.483 137.465Z" fill="#1570EF"/>
  <path d="M121.638 110.627C120.589 112.127 120.953 114.189 122.453 115.237C123.952 116.29 126.014 115.921 127.067 114.427C128.115 112.927 127.751 110.861 126.252 109.813C124.753 108.764 122.69 109.128 121.638 110.627Z" fill="#84CAFF"/>
  <path d="M123.938 123.67C122.885 125.169 123.249 127.236 124.748 128.285C126.248 129.333 128.31 128.969 129.363 127.469C130.411 125.97 130.047 123.908 128.547 122.859C127.048 121.807 124.986 122.176 123.938 123.67Z" fill="#84CAFF"/>
  <path d="M64.902 87.9285C64.3973 87.2055 63.6259 86.7154 62.7619 86.5648L36.6711 81.9649C34.8709 81.6447 33.1532 82.8481 32.833 84.6528L21.2214 150.513C21.0711 151.376 21.2652 152.269 21.7699 152.987C22.2745 153.706 23.0413 154.196 23.9099 154.346L50.0007 158.951C50.1948 158.985 50.3889 158.999 50.578 158.999C52.155 158.999 53.5525 157.869 53.8338 156.263L65.4504 90.4029C65.6007 89.5346 65.4019 88.6465 64.902 87.9285Z" fill="#84CAFF"/>
  <path d="M47.4188 97.3077L34.3759 95.0078C32.5759 94.6922 30.858 95.8956 30.5378 97.6959L23.5261 137.465C23.3758 138.334 23.5699 139.222 24.0746 139.94C24.5792 140.663 25.346 141.153 26.2146 141.303L39.2575 143.603C39.4516 143.637 39.6407 143.652 39.8348 143.652C40.509 143.652 41.1739 143.448 41.732 143.055C42.4549 142.55 42.9403 141.784 43.0956 140.915L50.1073 101.146C50.4271 99.3456 49.2238 97.6279 47.4188 97.3077Z" fill="#1570EF"/>
  <path d="M37.3591 110.627C38.4122 112.127 38.0482 114.189 36.5489 115.237C35.0495 116.29 32.9875 115.921 31.9344 114.427C30.8863 112.927 31.2502 110.861 32.7496 109.813C34.2489 108.764 36.311 109.128 37.3591 110.627Z" fill="#84CAFF"/>
  <path d="M35.0622 123.67C36.1153 125.169 35.7514 127.236 34.252 128.285C32.7527 129.333 30.6856 128.969 29.6375 127.469C28.5894 125.97 28.9534 123.908 30.4527 122.859C31.9521 121.807 34.0141 122.176 35.0622 123.67Z" fill="#84CAFF"/>
</svg>