<svg xmlns="http://www.w3.org/2000/svg" width="17" height="16" viewBox="0 0 17 16" fill="none">
  <path d="M2.90861 11.8602L2.97141 11.8047L7.16668 7.61L9.36194 9.80474C9.60226 10.0451 9.98042 10.0635 10.2419 9.8602L10.3047 9.80474L13.1667 6.94333L14.0286 7.80474C14.4303 8.20645 15.1048 7.95178 15.1627 7.40909L15.1667 7.33333L15.1655 4.62708L15.1595 4.5687L15.1429 4.48944L15.1267 4.43889L15.1042 4.38452L15.0693 4.31953L15.0247 4.25532L14.9714 4.19524C14.9478 4.17167 14.9229 4.15021 14.8969 4.13089L14.8227 4.08311L14.7476 4.04748L14.6773 4.0239L14.599 4.00735L14.5595 4.00264L14.5 4H11.8333C11.2652 4 10.9684 4.65701 11.3112 5.08168L11.3619 5.13807L12.2233 6L9.83334 8.39L7.63808 6.19526C7.39776 5.95494 7.01961 5.93645 6.75808 6.1398L6.69527 6.19526L2.02861 10.8619C1.76826 11.1223 1.76826 11.5444 2.02861 11.8047C2.26893 12.0451 2.64708 12.0635 2.90861 11.8602Z" fill="#12B76A"/>
</svg>