<svg xmlns="http://www.w3.org/2000/svg" width="19" height="19" viewBox="0 0 19 19" fill="none">
  <path opacity="0.1" d="M10.2917 7.52083C10.2917 9.05113 9.05113 10.2917 7.52083 10.2917C5.99054 10.2917 4.75 9.05113 4.75 7.52083C4.75 5.99054 5.99054 4.75 7.52083 4.75C9.05113 4.75 10.2917 5.99054 10.2917 7.52083Z" fill="#EAECF0"/>
  <path d="M12.3743 5.66447C12.5885 5.58503 12.8203 5.54163 13.0622 5.54163C14.1553 5.54163 15.0414 6.42773 15.0414 7.52079C15.0414 8.61385 14.1553 9.49996 13.0622 9.49996C12.8203 9.49996 12.5885 9.45658 12.3743 9.37709" stroke="#EAECF0" stroke-width="1.58333" stroke-linecap="round"/>
  <path d="M2.375 15.0416C2.92233 13.2151 4.3304 12.6666 7.52083 12.6666C10.7112 12.6666 12.1193 13.2151 12.6667 15.0416" stroke="#EAECF0" stroke-width="1.58333" stroke-linecap="round"/>
  <path d="M13.4585 11.875C15.3609 11.9502 16.2524 12.3803 16.6252 13.4583" stroke="#EAECF0" stroke-width="1.58333" stroke-linecap="round"/>
  <path d="M10.2917 7.52083C10.2917 9.05113 9.05113 10.2917 7.52083 10.2917C5.99054 10.2917 4.75 9.05113 4.75 7.52083C4.75 5.99054 5.99054 4.75 7.52083 4.75C9.05113 4.75 10.2917 5.99054 10.2917 7.52083Z" stroke="#EAECF0" stroke-width="1.58333"/>
</svg>